<svg version="1.1" id="Layer_1" xmlns="http://www.w3.org/2000/svg" xmlns:xlink="http://www.w3.org/1999/xlink" x="0px" y="0px"
	 width="100%" viewBox="0 0 2700 1265" enable-background="new 0 0 2700 1265" xml:space="preserve">
<path fill="#FFFFFF" opacity="1.000000" stroke="none" 
	d="
M1808.000000,1266.000000 
	C1205.333374,1266.000000 603.166687,1266.000000 1.000000,1266.000000 
	C1.000000,844.333313 1.000000,422.666656 1.000000,1.000000 
	C901.000000,1.000000 1801.000000,1.000000 2701.000000,1.000000 
	C2701.000000,422.666656 2701.000000,844.333313 2701.000000,1266.000000 
	C2403.500000,1266.000000 2106.000000,1266.000000 1808.000000,1266.000000 
M2566.000000,447.500000 
	C2566.000000,337.405304 2566.000000,227.310608 2566.000000,117.286530 
	C1755.355347,117.286530 945.287842,117.286530 135.288254,117.286530 
	C135.288254,461.309814 135.288254,805.046509 135.288254,1148.713623 
	C945.644165,1148.713623 1755.711792,1148.713623 2566.000000,1148.713623 
	C2566.000000,915.118103 2566.000000,681.809082 2566.000000,447.500000 
z"/>
<path fill="#000000" opacity="1.000000" stroke="none" 
	d="
M2566.000000,448.000000 
	C2566.000000,681.809082 2566.000000,915.118103 2566.000000,1148.713623 
	C1755.711792,1148.713623 945.644165,1148.713623 135.288254,1148.713623 
	C135.288254,805.046509 135.288254,461.309814 135.288254,117.286530 
	C945.287842,117.286530 1755.355347,117.286530 2566.000000,117.286530 
	C2566.000000,227.310608 2566.000000,337.405304 2566.000000,448.000000 
M2528.000000,868.500000 
	C2528.000000,630.739746 2528.000000,392.979523 2528.000000,155.285156 
	C1742.691528,155.285156 957.957336,155.285156 173.287018,155.285156 
	C173.287018,473.973846 173.287018,792.377319 173.287018,1110.714844 
	C958.308350,1110.714844 1743.042603,1110.714844 2528.000000,1110.714844 
	C2528.000000,1030.119873 2528.000000,949.809937 2528.000000,868.500000 
z"/>
<path fill="#FFFFFF" opacity="1.000000" stroke="none" 
	d="
M2528.000000,869.000000 
	C2528.000000,949.809937 2528.000000,1030.119873 2528.000000,1110.714844 
	C1743.042603,1110.714844 958.308350,1110.714844 173.287018,1110.714844 
	C173.287018,792.377319 173.287018,473.973846 173.287018,155.285156 
	C957.957336,155.285156 1742.691528,155.285156 2528.000000,155.285156 
	C2528.000000,392.979523 2528.000000,630.739746 2528.000000,869.000000 
M1732.957886,383.331207 
	C1731.305298,393.912079 1728.530518,404.460968 1728.228149,415.080292 
	C1727.549927,438.908020 1727.539917,462.693481 1732.776245,486.326813 
	C1738.452271,511.944183 1748.150146,535.629517 1762.176880,557.641541 
	C1778.064941,582.574341 1797.885010,604.333374 1818.252563,625.540283 
	C1829.927612,637.696411 1842.715576,648.779419 1854.914185,660.437805 
	C1865.590332,670.641357 1876.119873,680.998108 1886.759399,691.240173 
	C1893.317505,697.553406 1899.863403,703.884644 1906.585449,710.020935 
	C1920.159424,722.411987 1933.923706,734.536926 1945.036621,749.400696 
	C1959.232788,768.388550 1970.254761,788.549683 1973.093018,812.591614 
	C1975.038574,829.072083 1974.870605,845.450684 1969.263916,861.048035 
	C1961.673462,882.163574 1947.612305,898.010132 1926.536743,906.701782 
	C1916.589355,910.804016 1905.879883,912.167969 1895.264160,910.845825 
	C1878.159058,908.715515 1865.046021,898.914917 1854.673462,885.947571 
	C1839.780762,867.329346 1832.511230,845.189575 1828.037598,822.078003 
	C1826.299316,813.097961 1824.999268,804.033203 1823.547485,795.295654 
	C1817.203857,795.885193 1811.216064,796.581238 1805.208130,796.970520 
	C1793.377808,797.737183 1781.529541,798.229858 1769.702759,799.042603 
	C1763.519653,799.467590 1757.375366,800.433289 1751.196289,800.946655 
	C1748.741089,801.150635 1745.651978,801.929077 1745.035278,798.038940 
	C1743.334595,787.310120 1741.709106,776.569275 1739.990601,765.843323 
	C1738.247803,754.964783 1736.474731,744.090637 1734.632446,733.228638 
	C1732.467896,720.466492 1730.168457,707.727295 1728.014038,694.963501 
	C1726.180176,684.098938 1724.510742,673.206543 1722.693237,662.339111 
	C1720.503784,649.246643 1718.192505,636.174377 1716.013306,623.080200 
	C1714.204102,612.209045 1712.559204,601.310608 1710.750488,590.439331 
	C1708.890869,579.263184 1706.904297,568.108215 1705.004883,556.938477 
	C1703.213257,546.402954 1701.471558,535.858948 1699.691772,525.321411 
	C1697.804443,514.147339 1695.901367,502.975861 1693.999023,491.804291 
	C1692.124023,480.792786 1690.215576,469.786896 1688.369141,458.770569 
	C1686.548340,447.906403 1684.812744,437.027954 1682.992920,426.163605 
	C1681.120850,414.987671 1679.179688,403.823334 1677.292358,392.649933 
	C1675.512207,382.111633 1673.738281,371.572174 1672.006836,361.025818 
	C1670.221558,350.152069 1668.541626,339.260864 1666.723267,328.392731 
	C1664.532959,315.301819 1662.229004,302.229980 1660.005249,289.144623 
	C1658.305420,279.142395 1656.653564,269.132019 1654.996948,259.223816 
	C1602.674805,259.223816 1550.895508,259.223816 1498.975342,259.223816 
	C1472.105591,417.278442 1445.268799,575.139099 1418.432007,732.999756 
	C1405.649536,681.921082 1382.717041,638.654846 1332.291504,615.094543 
	C1333.057495,614.667236 1333.857910,614.169373 1334.700562,613.758057 
	C1358.901001,601.945251 1375.772095,582.690552 1388.630981,559.693359 
	C1403.764893,532.627625 1408.771484,502.844666 1409.815918,472.368805 
	C1410.254639,459.570129 1408.908325,446.683472 1407.919067,433.871887 
	C1407.230713,424.955963 1406.328979,415.984070 1404.524780,407.243164 
	C1401.540649,392.786133 1397.031250,378.792328 1391.176880,365.132080 
	C1382.988281,346.025391 1372.364136,328.594910 1358.006104,313.666382 
	C1343.009521,298.073944 1324.697632,287.159882 1305.217529,277.955566 
	C1276.722900,264.492065 1246.464233,258.572662 1215.339966,258.192963 
	C1159.351318,257.509857 1103.348511,257.998260 1047.351562,258.009827 
	C1045.928345,258.010132 1044.505005,258.156616 1043.331055,258.221222 
	C1043.331055,508.078217 1043.331055,757.473694 1043.331055,1007.000000 
	C1045.484863,1007.000000 1047.307983,1007.000000 1049.131226,1007.000000 
	C1116.127563,1007.000000 1183.123901,1007.073914 1250.119873,1006.910889 
	C1258.952026,1006.889404 1267.907715,1006.376709 1276.587524,1004.848999 
	C1300.481934,1000.643433 1322.344238,991.069214 1342.603638,977.846375 
	C1355.963501,969.126648 1368.139893,959.009460 1378.122192,946.430664 
	C1378.948853,945.389099 1380.139893,944.636780 1381.161743,943.750000 
	C1381.497314,943.944519 1381.832886,944.138977 1382.168457,944.333496 
	C1378.791016,965.078735 1375.413574,985.823975 1371.966064,1007.000000 
	C1374.021240,1007.000000 1375.824097,1007.000000 1377.626953,1007.000000 
	C1405.792114,1007.000000 1433.957153,1007.000000 1462.122314,1007.000000 
	C1470.288574,1007.000000 1478.458740,1007.131348 1486.617310,1006.879944 
	C1488.101440,1006.834167 1490.619385,1005.423279 1490.824707,1004.305237 
	C1492.466309,995.374390 1493.655518,986.360718 1495.003418,977.375427 
	C1496.399414,968.068787 1497.749390,958.754456 1499.244019,949.463562 
	C1501.095581,937.952759 1503.160278,926.475952 1504.976074,914.959717 
	C1506.770874,903.577026 1508.263062,892.146423 1510.082764,880.768005 
	C1512.281494,867.019226 1514.809814,853.322266 1516.911377,839.559448 
	C1517.432129,836.149414 1518.494019,834.900208 1522.100830,834.920288 
	C1548.598511,835.067810 1575.097412,835.000000 1601.595947,835.000000 
	C1611.262085,835.000000 1620.929932,834.910217 1630.592529,835.095581 
	C1632.065430,835.123840 1634.634644,836.229614 1634.799927,837.170349 
	C1636.429443,846.441895 1637.660156,855.783691 1638.999390,865.106140 
	C1640.408203,874.911926 1641.725220,884.731812 1643.239014,894.521362 
	C1645.418457,908.614746 1647.799805,922.676880 1649.979492,936.770264 
	C1651.518433,946.720398 1652.782593,956.713013 1654.321167,966.663208 
	C1656.128296,978.351318 1658.524170,989.968384 1659.786743,1001.710693 
	C1660.278076,1006.280457 1661.639038,1007.091553 1665.732788,1007.076782 
	C1702.230225,1006.944885 1738.728516,1007.000000 1775.226440,1007.000000 
	C1776.697388,1007.000000 1778.168335,1007.000000 1780.292480,1007.000000 
	C1777.742920,991.550842 1775.264893,976.535828 1772.786865,961.520813 
	C1775.800415,963.163818 1777.827026,965.295105 1779.893433,967.386902 
	C1793.486816,981.148071 1809.092896,991.996704 1826.719604,999.992188 
	C1850.252319,1010.666565 1875.204468,1014.792725 1900.745850,1015.896790 
	C1908.468872,1016.230530 1916.243652,1015.100525 1923.997559,1015.048767 
	C1939.903809,1014.942566 1955.448242,1012.283447 1970.541992,1007.675659 
	C2006.486206,996.702576 2035.750244,976.402710 2055.937500,944.161255 
	C2061.040771,936.010986 2065.579590,927.507507 2070.403564,919.121582 
	C2080.728271,938.668518 2093.218506,956.369141 2109.623047,971.282349 
	C2120.025879,980.739319 2131.098145,989.149658 2143.445312,995.756104 
	C2169.707031,1009.807495 2198.258301,1014.956360 2227.621582,1015.832275 
	C2239.426270,1016.184448 2251.332031,1015.099854 2263.107666,1013.866577 
	C2272.728516,1012.859009 2282.413330,1011.363464 2291.740967,1008.858521 
	C2323.615234,1000.298645 2350.873291,984.180237 2371.536865,957.941345 
	C2384.682617,941.248779 2394.710693,922.857666 2402.114258,902.898682 
	C2410.092773,881.389954 2413.235596,859.021912 2414.905273,836.391907 
	C2416.010986,821.409790 2414.976807,806.332642 2411.731445,791.720154 
	C2405.466797,763.512634 2394.472168,737.097778 2380.108398,711.949524 
	C2364.910156,685.339844 2345.900635,661.754395 2324.979248,639.609924 
	C2317.134766,631.306885 2308.710938,623.525391 2300.250732,615.836731 
	C2289.692383,606.241272 2279.022217,596.748108 2268.041748,587.643005 
	C2252.390869,574.664978 2236.416504,562.052673 2223.113281,546.551208 
	C2215.472900,537.648315 2207.586670,528.848999 2200.933105,519.227051 
	C2181.140381,490.603577 2168.281738,459.698730 2170.886230,423.816162 
	C2172.016602,408.246490 2175.332764,393.406647 2183.098389,379.930420 
	C2196.285645,357.045715 2214.771729,349.851410 2239.315186,352.148590 
	C2260.861084,354.165192 2275.263672,367.094849 2284.893799,385.662445 
	C2293.512695,402.281036 2298.489990,420.052795 2299.966797,438.745270 
	C2300.206543,441.776947 2301.091797,441.722473 2303.985107,441.176300 
	C2319.888672,438.174072 2335.906738,435.787140 2351.841797,432.943787 
	C2369.656006,429.765076 2387.419434,426.303650 2405.215332,423.020660 
	C2407.779785,422.547607 2409.396240,421.663696 2409.031738,418.616089 
	C2408.255127,412.132172 2408.140869,405.531769 2406.891113,399.148315 
	C2402.017090,374.255890 2394.394531,350.375305 2381.174805,328.421661 
	C2372.198975,313.515778 2361.246582,300.324341 2348.253906,288.991913 
	C2335.941162,278.252716 2321.812744,270.218170 2306.646240,263.869141 
	C2287.656494,255.919678 2267.792236,252.009033 2247.504150,250.144623 
	C2238.247559,249.293976 2228.814209,249.500183 2219.520996,250.121078 
	C2206.668213,250.979797 2193.587646,251.430847 2181.106201,254.265320 
	C2147.714111,261.848419 2119.234619,278.144165 2096.729492,304.558533 
	C2087.089600,315.873016 2079.240723,328.174286 2072.378662,341.219208 
	C2070.705322,344.399902 2069.433838,347.791992 2067.871582,351.326477 
	C2063.124023,342.728638 2058.929932,334.603394 2054.250977,326.767822 
	C2043.871826,309.386688 2031.109375,293.949463 2014.084351,282.771759 
	C2003.514526,275.832214 1992.426636,269.455902 1980.952515,264.169739 
	C1961.221680,255.079575 1940.025269,251.311111 1918.432007,250.079147 
	C1909.959595,249.595764 1901.426514,249.740723 1892.939575,250.074295 
	C1884.761963,250.395721 1876.584595,251.118011 1868.449585,252.039474 
	C1852.663940,253.827560 1837.604370,258.396423 1823.210938,265.015747 
	C1796.573364,277.266083 1775.516846,296.155090 1759.019775,320.189789 
	C1746.035156,339.107361 1737.643555,360.025116 1732.957886,383.331207 
M441.500000,724.000000 
	C467.475830,724.000000 493.451660,724.000000 519.613525,724.000000 
	C542.856750,819.717041 566.063354,915.283081 589.253601,1010.781982 
	C630.984436,1010.781982 672.431885,1010.781982 714.126831,1010.781982 
	C713.936707,1009.409912 713.890808,1008.256287 713.607971,1007.164124 
	C710.426880,994.880371 707.149475,982.621399 704.013123,970.326294 
	C694.797119,934.198303 685.689270,898.042725 676.432800,861.925110 
	C667.696899,827.838684 658.749756,793.806213 650.039368,759.713318 
	C643.433289,733.856506 637.005859,707.953613 630.685730,682.025574 
	C630.289246,680.398987 630.972595,677.900696 632.086670,676.618958 
	C637.070190,670.885559 642.939270,665.856689 647.472473,659.811462 
	C655.694458,648.846985 664.176758,637.885437 670.792969,625.948608 
	C685.217346,599.924255 690.629700,571.346741 690.925781,541.839600 
	C691.251709,509.348328 691.327698,476.846619 690.866333,444.358643 
	C690.623535,427.264557 689.134521,410.180908 687.962158,393.109436 
	C686.938660,378.205933 683.126587,363.921173 678.070251,349.881165 
	C669.159790,325.139191 655.782654,303.605682 635.285400,286.658997 
	C622.695190,276.249664 608.696411,268.729706 593.557251,262.789276 
	C567.056274,252.390579 539.257263,249.425262 511.307953,249.200089 
	C437.825104,248.608002 364.334320,249.000000 290.846710,249.000000 
	C289.264191,249.000000 287.681671,249.000000 286.301941,249.000000 
	C286.301941,503.394135 286.301941,757.102417 286.301941,1010.700562 
	C325.005524,1010.700562 363.406525,1010.700562 402.189514,1010.700562 
	C402.189514,915.007141 402.189514,819.612732 402.189514,724.000000 
	C415.215088,724.000000 427.857544,724.000000 441.500000,724.000000 
M975.000000,641.500000 
	C975.000000,570.740234 975.000000,499.980469 975.000000,429.289307 
	C953.022217,429.289307 931.616943,429.289307 909.821838,429.289307 
	C909.821838,516.225403 909.821838,602.872803 909.821838,689.520203 
	C906.953796,684.197266 905.282654,678.604248 903.538635,673.033997 
	C894.868591,645.342590 886.163513,617.662109 877.501953,589.968018 
	C870.563232,567.782776 863.722412,545.566833 856.742676,523.394531 
	C847.211243,493.116608 837.543518,462.881500 828.079834,432.582520 
	C827.176514,429.690491 825.880554,428.912872 822.960510,428.929962 
	C800.962036,429.058441 778.962402,428.996735 756.963135,429.012177 
	C756.027527,429.012817 755.091980,429.187775 754.301758,429.266998 
	C754.301758,563.672974 754.301758,697.741760 754.301758,831.694580 
	C776.010193,831.694580 797.415710,831.694580 819.217163,831.694580 
	C819.217163,747.753479 819.217163,664.117188 819.217163,579.589783 
	C820.194763,580.815735 820.755310,581.241211 820.942566,581.793335 
	C830.982666,611.389221 840.948792,641.010193 851.014954,670.597168 
	C861.288574,700.794067 871.721680,730.936707 881.962585,761.144531 
	C889.424805,783.156067 896.753235,805.213745 903.976318,827.304810 
	C905.191650,831.021729 907.018188,832.168457 910.997375,832.117065 
	C930.826782,831.860840 950.661194,832.004700 970.493896,831.990234 
	C971.930237,831.989136 973.366455,831.847839 975.000000,831.761292 
	C975.000000,768.451172 975.000000,705.475586 975.000000,641.500000 
M917.500000,888.000000 
	C936.595398,888.000000 955.690857,888.000000 974.709839,888.000000 
	C974.709839,875.351685 974.709839,863.279541 974.709839,851.286987 
	C901.019104,851.286987 827.618835,851.286987 754.290161,851.286987 
	C754.290161,863.648254 754.290161,875.720398 754.290161,888.000000 
	C808.553345,888.000000 862.526672,888.000000 917.500000,888.000000 
z"/>
<path fill="#000000" opacity="1.000000" stroke="none" 
	d="
M1732.977539,382.899414 
	C1737.643555,360.025116 1746.035156,339.107361 1759.019775,320.189789 
	C1775.516846,296.155090 1796.573364,277.266083 1823.210938,265.015747 
	C1837.604370,258.396423 1852.663940,253.827560 1868.449585,252.039474 
	C1876.584595,251.118011 1884.761963,250.395721 1892.939575,250.074295 
	C1901.426514,249.740723 1909.959595,249.595764 1918.432007,250.079147 
	C1940.025269,251.311111 1961.221680,255.079575 1980.952515,264.169739 
	C1992.426636,269.455902 2003.514526,275.832214 2014.084351,282.771759 
	C2031.109375,293.949463 2043.871826,309.386688 2054.250977,326.767822 
	C2058.929932,334.603394 2063.124023,342.728638 2067.871582,351.326477 
	C2069.433838,347.791992 2070.705322,344.399902 2072.378662,341.219208 
	C2079.240723,328.174286 2087.089600,315.873016 2096.729492,304.558533 
	C2119.234619,278.144165 2147.714111,261.848419 2181.106201,254.265320 
	C2193.587646,251.430847 2206.668213,250.979797 2219.520996,250.121078 
	C2228.814209,249.500183 2238.247559,249.293976 2247.504150,250.144623 
	C2267.792236,252.009033 2287.656494,255.919678 2306.646240,263.869141 
	C2321.812744,270.218170 2335.941162,278.252716 2348.253906,288.991913 
	C2361.246582,300.324341 2372.198975,313.515778 2381.174805,328.421661 
	C2394.394531,350.375305 2402.017090,374.255890 2406.891113,399.148315 
	C2408.140869,405.531769 2408.255127,412.132172 2409.031738,418.616089 
	C2409.396240,421.663696 2407.779785,422.547607 2405.215332,423.020660 
	C2387.419434,426.303650 2369.656006,429.765076 2351.841797,432.943787 
	C2335.906738,435.787140 2319.888672,438.174072 2303.985107,441.176300 
	C2301.091797,441.722473 2300.206543,441.776947 2299.966797,438.745270 
	C2298.489990,420.052795 2293.512695,402.281036 2284.893799,385.662445 
	C2275.263672,367.094849 2260.861084,354.165192 2239.315186,352.148590 
	C2214.771729,349.851410 2196.285645,357.045715 2183.098389,379.930420 
	C2175.332764,393.406647 2172.016602,408.246490 2170.886230,423.816162 
	C2168.281738,459.698730 2181.140381,490.603577 2200.933105,519.227051 
	C2207.586670,528.848999 2215.472900,537.648315 2223.113281,546.551208 
	C2236.416504,562.052673 2252.390869,574.664978 2268.041748,587.643005 
	C2279.022217,596.748108 2289.692383,606.241272 2300.250732,615.836731 
	C2308.710938,623.525391 2317.134766,631.306885 2324.979248,639.609924 
	C2345.900635,661.754395 2364.910156,685.339844 2380.108398,711.949524 
	C2394.472168,737.097778 2405.466797,763.512634 2411.731445,791.720154 
	C2414.976807,806.332642 2416.010986,821.409790 2414.905273,836.391907 
	C2413.235596,859.021912 2410.092773,881.389954 2402.114258,902.898682 
	C2394.710693,922.857666 2384.682617,941.248779 2371.536865,957.941345 
	C2350.873291,984.180237 2323.615234,1000.298645 2291.740967,1008.858521 
	C2282.413330,1011.363464 2272.728516,1012.859009 2263.107666,1013.866577 
	C2251.332031,1015.099854 2239.426270,1016.184448 2227.621582,1015.832275 
	C2198.258301,1014.956360 2169.707031,1009.807495 2143.445312,995.756104 
	C2131.098145,989.149658 2120.025879,980.739319 2109.623047,971.282349 
	C2093.218506,956.369141 2080.728271,938.668518 2070.403564,919.121582 
	C2065.579590,927.507507 2061.040771,936.010986 2055.937500,944.161255 
	C2035.750244,976.402710 2006.486206,996.702576 1970.541992,1007.675659 
	C1955.448242,1012.283447 1939.903809,1014.942566 1923.997559,1015.048767 
	C1916.243652,1015.100525 1908.468872,1016.230530 1900.745850,1015.896790 
	C1875.204468,1014.792725 1850.252319,1010.666565 1826.719604,999.992188 
	C1809.092896,991.996704 1793.486816,981.148071 1779.893433,967.386902 
	C1777.827026,965.295105 1775.800415,963.163818 1772.786865,961.520813 
	C1775.264893,976.535828 1777.742920,991.550842 1780.292480,1007.000000 
	C1778.168335,1007.000000 1776.697388,1007.000000 1775.226440,1007.000000 
	C1738.728516,1007.000000 1702.230225,1006.944885 1665.732788,1007.076782 
	C1661.639038,1007.091553 1660.278076,1006.280457 1659.786743,1001.710693 
	C1658.524170,989.968384 1656.128296,978.351318 1654.321167,966.663208 
	C1652.782593,956.713013 1651.518433,946.720398 1649.979492,936.770264 
	C1647.799805,922.676880 1645.418457,908.614746 1643.239014,894.521362 
	C1641.725220,884.731812 1640.408203,874.911926 1638.999390,865.106140 
	C1637.660156,855.783691 1636.429443,846.441895 1634.799927,837.170349 
	C1634.634644,836.229614 1632.065430,835.123840 1630.592529,835.095581 
	C1620.929932,834.910217 1611.262085,835.000000 1601.595947,835.000000 
	C1575.097412,835.000000 1548.598511,835.067810 1522.100830,834.920288 
	C1518.494019,834.900208 1517.432129,836.149414 1516.911377,839.559448 
	C1514.809814,853.322266 1512.281494,867.019226 1510.082764,880.768005 
	C1508.263062,892.146423 1506.770874,903.577026 1504.976074,914.959717 
	C1503.160278,926.475952 1501.095581,937.952759 1499.244019,949.463562 
	C1497.749390,958.754456 1496.399414,968.068787 1495.003418,977.375427 
	C1493.655518,986.360718 1492.466309,995.374390 1490.824707,1004.305237 
	C1490.619385,1005.423279 1488.101440,1006.834167 1486.617310,1006.879944 
	C1478.458740,1007.131348 1470.288574,1007.000000 1462.122314,1007.000000 
	C1433.957153,1007.000000 1405.792114,1007.000000 1377.626953,1007.000000 
	C1375.824097,1007.000000 1374.021240,1007.000000 1371.966064,1007.000000 
	C1375.413574,985.823975 1378.791016,965.078735 1382.168457,944.333496 
	C1381.832886,944.138977 1381.497314,943.944519 1381.161743,943.750000 
	C1380.139893,944.636780 1378.948853,945.389099 1378.122192,946.430664 
	C1368.139893,959.009460 1355.963501,969.126648 1342.603638,977.846375 
	C1322.344238,991.069214 1300.481934,1000.643433 1276.587524,1004.848999 
	C1267.907715,1006.376709 1258.952026,1006.889404 1250.119873,1006.910889 
	C1183.123901,1007.073914 1116.127563,1007.000000 1049.131226,1007.000000 
	C1047.307983,1007.000000 1045.484863,1007.000000 1043.331055,1007.000000 
	C1043.331055,757.473694 1043.331055,508.078217 1043.331055,258.221222 
	C1044.505005,258.156616 1045.928345,258.010132 1047.351562,258.009827 
	C1103.348511,257.998260 1159.351318,257.509857 1215.339966,258.192963 
	C1246.464233,258.572662 1276.722900,264.492065 1305.217529,277.955566 
	C1324.697632,287.159882 1343.009521,298.073944 1358.006104,313.666382 
	C1372.364136,328.594910 1382.988281,346.025391 1391.176880,365.132080 
	C1397.031250,378.792328 1401.540649,392.786133 1404.524780,407.243164 
	C1406.328979,415.984070 1407.230713,424.955963 1407.919067,433.871887 
	C1408.908325,446.683472 1410.254639,459.570129 1409.815918,472.368805 
	C1408.771484,502.844666 1403.764893,532.627625 1388.630981,559.693359 
	C1375.772095,582.690552 1358.901001,601.945251 1334.700562,613.758057 
	C1333.857910,614.169373 1333.057495,614.667236 1332.291504,615.094543 
	C1382.717041,638.654846 1405.649536,681.921082 1418.432007,732.999756 
	C1445.268799,575.139099 1472.105591,417.278442 1498.975342,259.223816 
	C1550.895508,259.223816 1602.674805,259.223816 1654.996948,259.223816 
	C1656.653564,269.132019 1658.305420,279.142395 1660.005249,289.144623 
	C1662.229004,302.229980 1664.532959,315.301819 1666.723267,328.392731 
	C1668.541626,339.260864 1670.221558,350.152069 1672.006836,361.025818 
	C1673.738281,371.572174 1675.512207,382.111633 1677.292358,392.649933 
	C1679.179688,403.823334 1681.120850,414.987671 1682.992920,426.163605 
	C1684.812744,437.027954 1686.548340,447.906403 1688.369141,458.770569 
	C1690.215576,469.786896 1692.124023,480.792786 1693.999023,491.804291 
	C1695.901367,502.975861 1697.804443,514.147339 1699.691772,525.321411 
	C1701.471558,535.858948 1703.213257,546.402954 1705.004883,556.938477 
	C1706.904297,568.108215 1708.890869,579.263184 1710.750488,590.439331 
	C1712.559204,601.310608 1714.204102,612.209045 1716.013306,623.080200 
	C1718.192505,636.174377 1720.503784,649.246643 1722.693237,662.339111 
	C1724.510742,673.206543 1726.180176,684.098938 1728.014038,694.963501 
	C1730.168457,707.727295 1732.467896,720.466492 1734.632446,733.228638 
	C1736.474731,744.090637 1738.247803,754.964783 1739.990601,765.843323 
	C1741.709106,776.569275 1743.334595,787.310120 1745.035278,798.038940 
	C1745.651978,801.929077 1748.741089,801.150635 1751.196289,800.946655 
	C1757.375366,800.433289 1763.519653,799.467590 1769.702759,799.042603 
	C1781.529541,798.229858 1793.377808,797.737183 1805.208130,796.970520 
	C1811.216064,796.581238 1817.203857,795.885193 1823.547485,795.295654 
	C1824.999268,804.033203 1826.299316,813.097961 1828.037598,822.078003 
	C1832.511230,845.189575 1839.780762,867.329346 1854.673462,885.947571 
	C1865.046021,898.914917 1878.159058,908.715515 1895.264160,910.845825 
	C1905.879883,912.167969 1916.589355,910.804016 1926.536743,906.701782 
	C1947.612305,898.010132 1961.673462,882.163574 1969.263916,861.048035 
	C1974.870605,845.450684 1975.038574,829.072083 1973.093018,812.591614 
	C1970.254761,788.549683 1959.232788,768.388550 1945.036621,749.400696 
	C1933.923706,734.536926 1920.159424,722.411987 1906.585449,710.020935 
	C1899.863403,703.884644 1893.317505,697.553406 1886.759399,691.240173 
	C1876.119873,680.998108 1865.590332,670.641357 1854.914185,660.437805 
	C1842.715576,648.779419 1829.927612,637.696411 1818.252563,625.540283 
	C1797.885010,604.333374 1778.064941,582.574341 1762.176880,557.641541 
	C1748.150146,535.629517 1738.452271,511.944183 1732.776245,486.326813 
	C1727.539917,462.693481 1727.549927,438.908020 1728.228149,415.080292 
	C1728.530518,404.460968 1731.305298,393.912079 1732.977539,382.899414 
M2189.999023,669.498779 
	C2179.862305,660.026428 2169.432861,650.845032 2159.660889,641.010132 
	C2146.598633,627.863403 2133.628418,614.577148 2121.403076,600.661621 
	C2111.014893,588.837158 2101.404053,576.282898 2092.048828,563.608887 
	C2077.974609,544.541748 2068.305664,523.248962 2061.995850,500.421997 
	C2057.618408,484.586060 2054.409424,468.572388 2053.953857,452.067413 
	C2053.736084,444.169952 2053.029541,436.285980 2052.510254,427.845764 
	C2026.911743,432.485901 2001.233521,437.140442 1975.309692,441.839508 
	C1974.556885,437.705444 1973.630249,433.457947 1973.028442,429.164948 
	C1970.659912,412.271973 1965.530273,396.258087 1956.799805,381.631256 
	C1951.015747,371.941132 1943.955811,363.077789 1933.336426,358.083038 
	C1923.957886,353.671936 1914.078003,351.857147 1903.633057,351.900696 
	C1882.131958,351.990387 1867.224609,362.668549 1857.195801,380.615540 
	C1845.513062,401.522125 1843.161133,424.198975 1845.927246,447.742523 
	C1848.241333,467.438477 1855.252441,485.289215 1864.760742,502.538086 
	C1881.596191,533.078857 1905.897583,556.943481 1931.904785,579.358765 
	C1946.883911,592.269104 1962.571045,604.396790 1977.067871,617.818237 
	C1995.487183,634.871216 2012.973022,652.944641 2028.330688,672.888672 
	C2045.296875,694.921570 2059.690918,718.527039 2070.614014,744.165039 
	C2078.246826,762.079773 2084.251709,780.492371 2087.376465,799.839355 
	C2108.191895,798.353516 2128.889404,796.876099 2148.843506,795.451782 
	C2151.546875,808.956787 2153.739746,822.714905 2157.120361,836.174683 
	C2162.851807,858.993469 2172.396484,879.762512 2190.369141,896.054810 
	C2205.548828,909.815247 2223.115234,913.796875 2242.414795,909.668457 
	C2266.207275,904.578857 2282.379150,888.773621 2292.338867,867.665283 
	C2301.193115,848.899597 2301.811035,828.461426 2298.111084,807.877075 
	C2293.126221,780.147156 2278.903076,757.448730 2260.418213,737.091187 
	C2253.085449,729.015564 2244.716553,721.880554 2236.816650,714.320190 
	C2221.378662,699.545654 2205.938477,684.773193 2189.999023,669.498779 
M1266.466064,689.978882 
	C1259.918457,683.688782 1251.815186,680.138062 1243.489868,677.012817 
	C1232.484253,672.881531 1220.822144,672.771118 1209.355957,672.147888 
	C1197.231445,671.488953 1185.043091,672.000000 1172.882690,672.000000 
	C1170.626099,672.000000 1168.369507,672.000000 1166.293457,672.000000 
	C1166.293457,746.370605 1166.293457,820.082581 1166.293457,894.000000 
	C1183.223877,894.000000 1199.861938,894.059326 1216.499146,893.954712 
	C1220.242432,893.931213 1224.012207,893.533142 1227.718384,892.969543 
	C1246.003540,890.188538 1261.137817,881.919189 1273.057251,867.543518 
	C1289.700806,847.470581 1297.308350,823.994080 1298.836670,798.515442 
	C1299.899414,780.799622 1298.530884,763.111328 1295.121582,745.552734 
	C1291.009644,724.376160 1283.615234,705.131531 1266.466064,689.978882 
M1166.000000,421.500000 
	C1166.000000,468.923126 1166.000000,516.346252 1166.000000,564.950317 
	C1187.062500,563.948242 1207.578247,563.655029 1227.951782,561.801147 
	C1246.439819,560.118896 1260.354614,549.848389 1271.047729,534.860535 
	C1283.992310,516.716492 1287.558350,495.829498 1288.873169,474.369232 
	C1289.334717,466.834503 1288.330933,459.210297 1288.001709,451.626740 
	C1287.390747,437.551361 1284.020630,424.231964 1277.335938,411.765045 
	C1264.199707,387.265533 1243.404053,375.156403 1215.993408,374.067749 
	C1205.511719,373.651459 1194.999634,374.000000 1184.501465,374.000000 
	C1178.403687,374.000000 1172.305908,374.000000 1166.000000,374.000000 
	C1166.000000,389.882446 1166.000000,405.191223 1166.000000,421.500000 
M1610.000122,670.593018 
	C1609.666748,668.345337 1609.310059,666.100891 1609.004272,663.849487 
	C1607.954224,656.115967 1607.006104,648.367432 1605.862305,640.647949 
	C1604.317627,630.223083 1602.494629,619.838379 1601.036499,609.402161 
	C1599.527710,598.601562 1598.462891,587.738586 1596.929688,576.941833 
	C1595.105835,564.098328 1592.882812,551.311768 1591.033447,538.471680 
	C1589.526123,528.005432 1588.445679,517.477783 1586.937988,507.011597 
	C1585.088257,494.171783 1582.883423,481.383179 1581.033203,468.543457 
	C1579.449707,457.553192 1578.149902,446.522003 1576.724609,435.508911 
	C1576.567749,435.515442 1576.410767,435.521942 1576.253906,435.528473 
	C1562.601074,531.919312 1548.948242,628.310120 1535.282837,724.789062 
	C1562.478027,724.789062 1589.577026,724.789062 1617.144043,724.789062 
	C1616.385132,717.600403 1615.831665,710.639587 1614.879395,703.733826 
	C1613.395142,692.969604 1611.640259,682.242737 1610.000122,670.593018 
z"/>
<path fill="#000000" opacity="1.000000" stroke="none" 
	d="
M441.000000,724.000000 
	C427.857544,724.000000 415.215088,724.000000 402.189514,724.000000 
	C402.189514,819.612732 402.189514,915.007141 402.189514,1010.700562 
	C363.406525,1010.700562 325.005524,1010.700562 286.301941,1010.700562 
	C286.301941,757.102417 286.301941,503.394135 286.301941,249.000000 
	C287.681671,249.000000 289.264191,249.000000 290.846710,249.000000 
	C364.334320,249.000000 437.825104,248.608002 511.307953,249.200089 
	C539.257263,249.425262 567.056274,252.390579 593.557251,262.789276 
	C608.696411,268.729706 622.695190,276.249664 635.285400,286.658997 
	C655.782654,303.605682 669.159790,325.139191 678.070251,349.881165 
	C683.126587,363.921173 686.938660,378.205933 687.962158,393.109436 
	C689.134521,410.180908 690.623535,427.264557 690.866333,444.358643 
	C691.327698,476.846619 691.251709,509.348328 690.925781,541.839600 
	C690.629700,571.346741 685.217346,599.924255 670.792969,625.948608 
	C664.176758,637.885437 655.694458,648.846985 647.472473,659.811462 
	C642.939270,665.856689 637.070190,670.885559 632.086670,676.618958 
	C630.972595,677.900696 630.289246,680.398987 630.685730,682.025574 
	C637.005859,707.953613 643.433289,733.856506 650.039368,759.713318 
	C658.749756,793.806213 667.696899,827.838684 676.432800,861.925110 
	C685.689270,898.042725 694.797119,934.198303 704.013123,970.326294 
	C707.149475,982.621399 710.426880,994.880371 713.607971,1007.164124 
	C713.890808,1008.256287 713.936707,1009.409912 714.126831,1010.781982 
	C672.431885,1010.781982 630.984436,1010.781982 589.253601,1010.781982 
	C566.063354,915.283081 542.856750,819.717041 519.613525,724.000000 
	C493.451660,724.000000 467.475830,724.000000 441.000000,724.000000 
M552.456543,376.972839 
	C542.318481,371.124634 531.374451,368.055756 519.694580,368.030334 
	C482.215424,367.948700 444.735931,368.000000 407.256592,368.000000 
	C405.635101,368.000000 404.013611,368.000000 402.331360,368.000000 
	C402.331360,448.886627 402.331360,529.378296 402.331360,610.000000 
	C438.132996,610.000000 473.603668,609.913086 509.073639,610.038635 
	C525.484558,610.096741 540.217224,606.198975 553.260193,595.483704 
	C568.931152,582.609375 577.525024,566.294434 577.836548,546.376282 
	C578.409485,509.738770 578.196350,473.084106 577.862793,436.440674 
	C577.778809,427.206421 576.867493,417.786987 574.792908,408.809296 
	C571.771057,395.731934 565.279907,384.434784 552.456543,376.972839 
z"/>
<path fill="#000000" opacity="1.000000" stroke="none" 
	d="
M975.000000,642.000000 
	C975.000000,705.475586 975.000000,768.451172 975.000000,831.761292 
	C973.366455,831.847839 971.930237,831.989136 970.493896,831.990234 
	C950.661194,832.004700 930.826782,831.860840 910.997375,832.117065 
	C907.018188,832.168457 905.191650,831.021729 903.976318,827.304810 
	C896.753235,805.213745 889.424805,783.156067 881.962585,761.144531 
	C871.721680,730.936707 861.288574,700.794067 851.014954,670.597168 
	C840.948792,641.010193 830.982666,611.389221 820.942566,581.793335 
	C820.755310,581.241211 820.194763,580.815735 819.217163,579.589783 
	C819.217163,664.117188 819.217163,747.753479 819.217163,831.694580 
	C797.415710,831.694580 776.010193,831.694580 754.301758,831.694580 
	C754.301758,697.741760 754.301758,563.672974 754.301758,429.266998 
	C755.091980,429.187775 756.027527,429.012817 756.963135,429.012177 
	C778.962402,428.996735 800.962036,429.058441 822.960510,428.929962 
	C825.880554,428.912872 827.176514,429.690491 828.079834,432.582520 
	C837.543518,462.881500 847.211243,493.116608 856.742676,523.394531 
	C863.722412,545.566833 870.563232,567.782776 877.501953,589.968018 
	C886.163513,617.662109 894.868591,645.342590 903.538635,673.033997 
	C905.282654,678.604248 906.953796,684.197266 909.821838,689.520203 
	C909.821838,602.872803 909.821838,516.225403 909.821838,429.289307 
	C931.616943,429.289307 953.022217,429.289307 975.000000,429.289307 
	C975.000000,499.980469 975.000000,570.740234 975.000000,642.000000 
z"/>
<path fill="#000000" opacity="1.000000" stroke="none" 
	d="
M917.000000,888.000000 
	C862.526672,888.000000 808.553345,888.000000 754.290161,888.000000 
	C754.290161,875.720398 754.290161,863.648254 754.290161,851.286987 
	C827.618835,851.286987 901.019104,851.286987 974.709839,851.286987 
	C974.709839,863.279541 974.709839,875.351685 974.709839,888.000000 
	C955.690857,888.000000 936.595398,888.000000 917.000000,888.000000 
z"/>
<path fill="#FFFFFF" opacity="1.000000" stroke="none" 
	d="
M2190.249268,669.749268 
	C2205.938477,684.773193 2221.378662,699.545654 2236.816650,714.320190 
	C2244.716553,721.880554 2253.085449,729.015564 2260.418213,737.091187 
	C2278.903076,757.448730 2293.126221,780.147156 2298.111084,807.877075 
	C2301.811035,828.461426 2301.193115,848.899597 2292.338867,867.665283 
	C2282.379150,888.773621 2266.207275,904.578857 2242.414795,909.668457 
	C2223.115234,913.796875 2205.548828,909.815247 2190.369141,896.054810 
	C2172.396484,879.762512 2162.851807,858.993469 2157.120361,836.174683 
	C2153.739746,822.714905 2151.546875,808.956787 2148.843506,795.451782 
	C2128.889404,796.876099 2108.191895,798.353516 2087.376465,799.839355 
	C2084.251709,780.492371 2078.246826,762.079773 2070.614014,744.165039 
	C2059.690918,718.527039 2045.296875,694.921570 2028.330688,672.888672 
	C2012.973022,652.944641 1995.487183,634.871216 1977.067871,617.818237 
	C1962.571045,604.396790 1946.883911,592.269104 1931.904785,579.358765 
	C1905.897583,556.943481 1881.596191,533.078857 1864.760742,502.538086 
	C1855.252441,485.289215 1848.241333,467.438477 1845.927246,447.742523 
	C1843.161133,424.198975 1845.513062,401.522125 1857.195801,380.615540 
	C1867.224609,362.668549 1882.131958,351.990387 1903.633057,351.900696 
	C1914.078003,351.857147 1923.957886,353.671936 1933.336426,358.083038 
	C1943.955811,363.077789 1951.015747,371.941132 1956.799805,381.631256 
	C1965.530273,396.258087 1970.659912,412.271973 1973.028442,429.164948 
	C1973.630249,433.457947 1974.556885,437.705444 1975.309692,441.839508 
	C2001.233521,437.140442 2026.911743,432.485901 2052.510254,427.845764 
	C2053.029541,436.285980 2053.736084,444.169952 2053.953857,452.067413 
	C2054.409424,468.572388 2057.618408,484.586060 2061.995850,500.421997 
	C2068.305664,523.248962 2077.974609,544.541748 2092.048828,563.608887 
	C2101.404053,576.282898 2111.014893,588.837158 2121.403076,600.661621 
	C2133.628418,614.577148 2146.598633,627.863403 2159.660889,641.010132 
	C2169.432861,650.845032 2179.862305,660.026428 2190.249268,669.749268 
z"/>
<path fill="#FFFFFF" opacity="1.000000" stroke="none" 
	d="
M1266.724121,690.225708 
	C1283.615234,705.131531 1291.009644,724.376160 1295.121582,745.552734 
	C1298.530884,763.111328 1299.899414,780.799622 1298.836670,798.515442 
	C1297.308350,823.994080 1289.700806,847.470581 1273.057251,867.543518 
	C1261.137817,881.919189 1246.003540,890.188538 1227.718384,892.969543 
	C1224.012207,893.533142 1220.242432,893.931213 1216.499146,893.954712 
	C1199.861938,894.059326 1183.223877,894.000000 1166.293457,894.000000 
	C1166.293457,820.082581 1166.293457,746.370605 1166.293457,672.000000 
	C1168.369507,672.000000 1170.626099,672.000000 1172.882690,672.000000 
	C1185.043091,672.000000 1197.231445,671.488953 1209.355957,672.147888 
	C1220.822144,672.771118 1232.484253,672.881531 1243.489868,677.012817 
	C1251.815186,680.138062 1259.918457,683.688782 1266.724121,690.225708 
z"/>
<path fill="#FFFFFF" opacity="1.000000" stroke="none" 
	d="
M1166.000000,421.000000 
	C1166.000000,405.191223 1166.000000,389.882446 1166.000000,374.000000 
	C1172.305908,374.000000 1178.403687,374.000000 1184.501465,374.000000 
	C1194.999634,374.000000 1205.511719,373.651459 1215.993408,374.067749 
	C1243.404053,375.156403 1264.199707,387.265533 1277.335938,411.765045 
	C1284.020630,424.231964 1287.390747,437.551361 1288.001709,451.626740 
	C1288.330933,459.210297 1289.334717,466.834503 1288.873169,474.369232 
	C1287.558350,495.829498 1283.992310,516.716492 1271.047729,534.860535 
	C1260.354614,549.848389 1246.439819,560.118896 1227.951782,561.801147 
	C1207.578247,563.655029 1187.062500,563.948242 1166.000000,564.950317 
	C1166.000000,516.346252 1166.000000,468.923126 1166.000000,421.000000 
z"/>
<path fill="#FFFFFF" opacity="1.000000" stroke="none" 
	d="
M1610.000000,671.046509 
	C1611.640259,682.242737 1613.395142,692.969604 1614.879395,703.733826 
	C1615.831665,710.639587 1616.385132,717.600403 1617.144043,724.789062 
	C1589.577026,724.789062 1562.478027,724.789062 1535.282837,724.789062 
	C1548.948242,628.310120 1562.601074,531.919312 1576.253906,435.528473 
	C1576.410767,435.521942 1576.567749,435.515442 1576.724609,435.508911 
	C1578.149902,446.522003 1579.449707,457.553192 1581.033203,468.543457 
	C1582.883423,481.383179 1585.088257,494.171783 1586.937988,507.011597 
	C1588.445679,517.477783 1589.526123,528.005432 1591.033447,538.471680 
	C1592.882812,551.311768 1595.105835,564.098328 1596.929688,576.941833 
	C1598.462891,587.738586 1599.527710,598.601562 1601.036499,609.402161 
	C1602.494629,619.838379 1604.317627,630.223083 1605.862305,640.647949 
	C1607.006104,648.367432 1607.954224,656.115967 1609.004272,663.849487 
	C1609.310059,666.100891 1609.666748,668.345337 1610.000000,671.046509 
z"/>
<path fill="#FFFFFF" opacity="1.000000" stroke="none" 
	d="
M552.728027,377.232574 
	C565.279907,384.434784 571.771057,395.731934 574.792908,408.809296 
	C576.867493,417.786987 577.778809,427.206421 577.862793,436.440674 
	C578.196350,473.084106 578.409485,509.738770 577.836548,546.376282 
	C577.525024,566.294434 568.931152,582.609375 553.260193,595.483704 
	C540.217224,606.198975 525.484558,610.096741 509.073639,610.038635 
	C473.603668,609.913086 438.132996,610.000000 402.331360,610.000000 
	C402.331360,529.378296 402.331360,448.886627 402.331360,368.000000 
	C404.013611,368.000000 405.635101,368.000000 407.256592,368.000000 
	C444.735931,368.000000 482.215424,367.948700 519.694580,368.030334 
	C531.374451,368.055756 542.318481,371.124634 552.728027,377.232574 
z"/>
</svg>